<svg width="104" height="26" viewBox="0 0 104 26" fill="none" xmlns="http://www.w3.org/2000/svg">
<path d="M101.826 25.4473H98.5399C98.2897 25.4473 98.1086 25.3438 97.9965 25.1368L96.4568 22.4197C96.336 22.2126 96.336 22.0056 96.4568 21.7986L97.9965 19.0945C98.1086 18.8874 98.2897 18.7839 98.5399 18.7839H101.826C102.076 18.7839 102.258 18.8874 102.37 19.0945L103.909 21.7986C104.03 22.0056 104.03 22.2126 103.909 22.4197L102.37 25.1368C102.258 25.3438 102.076 25.4473 101.826 25.4473ZM99.2386 24.1664H101.438C101.619 24.1664 101.71 24.0715 101.71 23.8817V23.4159C101.71 23.2348 101.619 23.1442 101.438 23.1442H99.6785L99.0833 22.1091L99.6785 21.087H101.399C101.589 21.087 101.684 20.9964 101.684 20.8153V20.3495C101.684 20.1597 101.589 20.0649 101.399 20.0649H99.2386C99.1092 20.0649 99.0014 20.1339 98.9151 20.2719L97.9447 21.928C97.8671 22.0488 97.8671 22.1738 97.9447 22.3032L98.9151 23.9594C99.0014 24.0974 99.1092 24.1664 99.2386 24.1664Z" fill="#040404"/>
<path d="M65.9834 25.681V20.2916H83.8954C84.3392 20.2916 84.7408 20.1225 85.1001 19.7844C85.4594 19.4251 85.639 19.0129 85.639 18.548C85.639 18.083 85.4594 17.6814 85.1001 17.3433C84.7408 16.984 84.3392 16.8043 83.8954 16.8043H74.5431C72.0914 16.8043 70.0519 16.0329 68.4245 14.49C66.7971 12.926 65.9834 10.9499 65.9834 8.56164C65.9834 7.54716 66.163 6.56438 66.5223 5.6133C66.8816 4.64109 67.3995 3.76399 68.0758 2.98199C68.7732 2.17886 69.6715 1.53424 70.7705 1.04813C71.8907 0.562025 73.1482 0.31897 74.5431 0.31897H92.6136V6.65949H75.1772C74.5008 6.65949 73.9619 6.84971 73.5603 7.23014C73.1587 7.61057 72.958 8.0544 72.958 8.56164C72.958 9.06888 73.1587 9.51272 73.5603 9.89315C73.9619 10.2736 74.5008 10.4638 75.1772 10.4638H84.3709C86.5267 10.4638 88.4394 11.2141 90.1091 12.7147C91.7787 14.1941 92.6136 15.9801 92.6136 18.0724C92.6136 20.0591 91.8527 21.8239 90.331 23.3668C88.8093 24.9096 86.8226 25.681 84.3709 25.681H65.9834Z" fill="#040404"/>
<path d="M38.564 25.681V9.82975C38.564 7.209 39.5784 4.96869 41.6074 3.1088C43.6575 1.24891 46.1303 0.31897 49.0258 0.31897H62.975V6.65949H49.0258C48.0536 6.65949 47.2293 6.97651 46.553 7.61057C45.8767 8.22348 45.5385 8.96321 45.5385 9.82975V13H62.975V19.3405H45.5385V25.681H38.564Z" fill="#040404"/>
<path d="M0 25.681V9.82975C0 7.209 1.01448 4.96868 3.04345 3.1088C5.09355 1.24891 7.56635 0.31897 10.4619 0.31897H24.728C27.6235 0.31897 30.0858 1.24891 32.1147 3.1088C34.1648 4.96868 35.1899 7.209 35.1899 9.82975V16.1703C35.1899 18.791 34.1648 21.0313 32.1147 22.8912C30.0858 24.7511 27.6235 25.681 24.728 25.681H8.5597V19.3405H24.728C25.7002 19.3405 26.5245 19.0341 27.2008 18.4212C27.8771 17.7871 28.2153 17.0368 28.2153 16.1703V9.82975C28.2153 8.96321 27.8771 8.22348 27.2008 7.61057C26.5245 6.97651 25.7002 6.65949 24.728 6.65949H10.4619C9.48964 6.65949 8.66538 6.97651 7.98905 7.61057C7.31273 8.22348 6.97457 8.96321 6.97457 9.82975V25.681H0Z" fill="#040404"/>
</svg>
