<svg width="66" height="26" viewBox="0 0 66 26" fill="none" xmlns="http://www.w3.org/2000/svg">
    <g id="Logo">
        <path id="&#194;&#169;" d="M63.2623 25.447H59.9759C59.7258 25.447 59.5446 25.3435 59.4325 25.1365L57.8928 22.4194C57.7721 22.2124 57.7721 22.0054 57.8928 21.7984L59.4325 19.0942C59.5446 18.8872 59.7258 18.7837 59.9759 18.7837H63.2623C63.5125 18.7837 63.6936 18.8872 63.8057 19.0942L65.3454 21.7984C65.4662 22.0054 65.4662 22.2124 65.3454 22.4194L63.8057 25.1365C63.6936 25.3435 63.5125 25.447 63.2623 25.447ZM60.6746 24.1661H62.8742C63.0553 24.1661 63.1459 24.0712 63.1459 23.8815V23.4157C63.1459 23.2346 63.0553 23.144 62.8742 23.144H61.1145L60.5193 22.1089L61.1145 21.0868H62.8353C63.0251 21.0868 63.12 20.9962 63.12 20.815V20.3493C63.12 20.1595 63.0251 20.0646 62.8353 20.0646H60.6746C60.5452 20.0646 60.4374 20.1336 60.3511 20.2716L59.3807 21.9278C59.3031 22.0485 59.3031 22.1736 59.3807 22.303L60.3511 23.9591C60.4374 24.0971 60.5452 24.1661 60.6746 24.1661Z" fill="#040404"/>
        <g id="Group 5">
            <path id="Vector" d="M27.4194 25.6809V20.2915H45.3314C45.7752 20.2915 46.1768 20.1224 46.5361 19.7842C46.8954 19.4249 47.075 19.0128 47.075 18.5478C47.075 18.0829 46.8954 17.6813 46.5361 17.3431C46.1768 16.9838 45.7752 16.8042 45.3314 16.8042H35.9791C33.5275 16.8042 31.4879 16.0328 29.8605 14.4899C28.2331 12.9259 27.4194 10.9498 27.4194 8.56152C27.4194 7.54704 27.5991 6.56426 27.9584 5.61318C28.3177 4.64097 28.8355 3.76386 29.5118 2.98187C30.2093 2.17873 31.1075 1.53412 32.2065 1.04801C33.3267 0.561903 34.5842 0.318848 35.9791 0.318848H54.0496V6.65937H36.6132C35.9369 6.65937 35.3979 6.84958 34.9963 7.23002C34.5948 7.61045 34.394 8.05428 34.394 8.56152C34.394 9.06876 34.5948 9.5126 34.9963 9.89303C35.3979 10.2735 35.9369 10.4637 36.6132 10.4637H45.8069C47.9627 10.4637 49.8754 11.214 51.5451 12.7146C53.2148 14.194 54.0496 15.9799 54.0496 18.0723C54.0496 20.059 53.2888 21.8238 51.767 23.3666C50.2453 24.9095 48.2586 25.6809 45.8069 25.6809H27.4194Z" fill="#040404"/>
            <path id="Vector_2" d="M0 25.6809V9.82963C0 7.20888 1.01448 4.96856 3.04345 3.10868C5.09355 1.24879 7.56635 0.318848 10.4619 0.318848H24.411V6.65937H10.4619C9.48964 6.65937 8.66538 6.97639 7.98905 7.61044C7.31273 8.22336 6.97457 8.96309 6.97457 9.82963V12.9999H24.411V19.3404H6.97457V25.6809H0Z" fill="#040404"/>
        </g>
    </g>
</svg>
