<svg width="66" height="26" viewBox="0 0 66 26" fill="none" xmlns="http://www.w3.org/2000/svg">
    <g id="Logo">
        <path id="&#194;&#169;" d="M63.2623 25.4473H59.9759C59.7258 25.4473 59.5446 25.3438 59.4325 25.1368L57.8928 22.4197C57.7721 22.2126 57.7721 22.0056 57.8928 21.7986L59.4325 19.0945C59.5446 18.8874 59.7258 18.7839 59.9759 18.7839H63.2623C63.5125 18.7839 63.6936 18.8874 63.8057 19.0945L65.3454 21.7986C65.4662 22.0056 65.4662 22.2126 65.3454 22.4197L63.8057 25.1368C63.6936 25.3438 63.5125 25.4473 63.2623 25.4473ZM60.6746 24.1664H62.8742C63.0553 24.1664 63.1459 24.0715 63.1459 23.8817V23.4159C63.1459 23.2348 63.0553 23.1442 62.8742 23.1442H61.1145L60.5193 22.1091L61.1145 21.087H62.8353C63.0251 21.087 63.12 20.9964 63.12 20.8153V20.3495C63.12 20.1597 63.0251 20.0649 62.8353 20.0649H60.6746C60.5452 20.0649 60.4374 20.1339 60.3511 20.2719L59.3807 21.928C59.3031 22.0488 59.3031 22.1738 59.3807 22.3032L60.3511 23.9594C60.4374 24.0974 60.5452 24.1664 60.6746 24.1664Z" fill="white"/>
        <g id="Group 5">
            <path id="Vector" d="M27.4194 25.681V20.2916H45.3314C45.7752 20.2916 46.1768 20.1225 46.5361 19.7844C46.8954 19.4251 47.075 19.0129 47.075 18.548C47.075 18.083 46.8954 17.6814 46.5361 17.3433C46.1768 16.984 45.7752 16.8043 45.3314 16.8043H35.9791C33.5275 16.8043 31.4879 16.0329 29.8605 14.49C28.2331 12.926 27.4194 10.9499 27.4194 8.56164C27.4194 7.54716 27.5991 6.56438 27.9584 5.6133C28.3177 4.64109 28.8355 3.76399 29.5118 2.98199C30.2093 2.17886 31.1075 1.53424 32.2065 1.04813C33.3267 0.562025 34.5842 0.31897 35.9791 0.31897H54.0496V6.65949H36.6132C35.9369 6.65949 35.3979 6.84971 34.9963 7.23014C34.5948 7.61057 34.394 8.0544 34.394 8.56164C34.394 9.06888 34.5948 9.51272 34.9963 9.89315C35.3979 10.2736 35.9369 10.4638 36.6132 10.4638H45.8069C47.9627 10.4638 49.8754 11.2141 51.5451 12.7147C53.2148 14.1941 54.0496 15.9801 54.0496 18.0724C54.0496 20.0591 53.2888 21.8239 51.767 23.3668C50.2453 24.9096 48.2586 25.681 45.8069 25.681H27.4194Z" fill="white"/>
            <path id="Vector_2" d="M0 25.681V9.82975C0 7.209 1.01448 4.96869 3.04345 3.1088C5.09355 1.24891 7.56635 0.31897 10.4619 0.31897H24.411V6.65949H10.4619C9.48964 6.65949 8.66538 6.97651 7.98905 7.61057C7.31273 8.22348 6.97457 8.96321 6.97457 9.82975V13H24.411V19.3405H6.97457V25.681H0Z" fill="white"/>
        </g>
    </g>
</svg>
